<?xml version="1.0" encoding="UTF-8" standalone="no"?>
<svg
   xmlns:dc="http://purl.org/dc/elements/1.1/"
   xmlns:cc="http://creativecommons.org/ns#"
   xmlns:rdf="http://www.w3.org/1999/02/22-rdf-syntax-ns#"
   xmlns:svg="http://www.w3.org/2000/svg"
   xmlns="http://www.w3.org/2000/svg"
   xmlns:sodipodi="http://sodipodi.sourceforge.net/DTD/sodipodi-0.dtd"
   xmlns:inkscape="http://www.inkscape.org/namespaces/inkscape"
   width="205mm"
   height="235mm"
   viewBox="0 0 205 235"
   version="1.1"
   id="svg8"
   sodipodi:docname="logo.svg"
   inkscape:version="1.0.1 (0767f8302a, 2020-10-17)">
  <sodipodi:namedview
     pagecolor="#ffffff"
     bordercolor="#666666"
     borderopacity="1"
     objecttolerance="10"
     gridtolerance="10"
     guidetolerance="10"
     inkscape:pageopacity="0"
     inkscape:pageshadow="2"
     inkscape:window-width="1920"
     inkscape:window-height="1035"
     id="namedview7"
     showgrid="false"
     inkscape:zoom="0.78929575"
     inkscape:cx="71.154414"
     inkscape:cy="653.38679"
     inkscape:window-x="0"
     inkscape:window-y="19"
     inkscape:window-maximized="1"
     inkscape:current-layer="layer1"
     inkscape:document-rotation="0"
     inkscape:snap-page="false"
     inkscape:document-units="mm" />
  <defs
     id="defs2" />
  <metadata
     id="metadata5">
    <rdf:RDF>
      <cc:Work
         rdf:about="">
        <dc:format>image/svg+xml</dc:format>
        <dc:type
           rdf:resource="http://purl.org/dc/dcmitype/StillImage" />
        <dc:title />
      </cc:Work>
    </rdf:RDF>
  </metadata>
  <g
     id="layer1">
    <path
       id="path849"
       style="fill:#000000;fill-opacity:1;stroke:none;stroke-width:0.769194px;stroke-linecap:butt;stroke-linejoin:miter;stroke-opacity:1"
       d="m 76.340966,-0.0309193 c -8.776394,0.078203 -15.848397,6.9853186 -15.84812,15.4785403 -0.176176,2.260168 -0.186497,4.70352 1.341585,6.201626 -1.542182,-2.388057 -1.341585,-6.201626 -1.341585,-6.201626 l -17.708016,0.356044 -0.535592,7.563763 c -3.781727,36.938486 14.803086,54.988149 48.840141,49.419768 0,0 0.02384,8.566425 0.04207,14.243651 -1.385301,-4.919088 -5.842271,-8.313644 -10.915964,-8.313935 -6.132871,7.85e-4 -11.155444,4.912257 -11.341121,11.090247 L 49.335009,89.578654 c -0.27819,-6.837691 -5.913803,-12.23795 -12.771344,-12.238037 -6.987307,1.75e-4 -12.679599,5.599459 -12.780353,12.57155 L 0.01938923,89.88891 c 0,0 -0.7778285,10.1373 1.01557597,22.17146 4.7117825,31.14 32.9437128,39.85376 51.4038628,32.24607 2.601302,18.91007 16.184776,28.09742 38.677597,19.4823 l 0.03154,71.18058 22.676225,0.0616 -0.37108,-71.36388 c 19.36137,9.19328 35.78277,0.75241 38.94501,-19.70461 16.24502,8.13462 32.28084,3.22963 41.2541,-7.89478 11.42527,-12.18931 10.78805,-27.4849 11.32009,-33.6658 0.53205,-6.180871 -0.31098,-12.890033 -0.31098,-12.890033 l -23.87059,0.0058 c -0.30942,-6.647212 -5.80055,-11.877719 -12.46937,-11.877457 -6.8012,8.7e-5 -12.35057,5.433225 -12.47991,12.2185 l -19.41014,-0.0029 c 5.5e-4,-0.02035 7.8e-4,-0.04215 0.002,-0.06309 -3.8e-4,-6.316257 -5.08137,-11.436262 -11.34865,-11.435768 -5.98672,8.7e-5 -10.94358,4.687327 -11.32458,10.70862 l -0.0305,-16.189105 c 23.33072,4.177086 43.3403,-2.579001 46.18475,-22.063276 1.23076,-4.823617 1.25393,-10.930992 1.8584,-15.437985 0.60434,-4.506994 0.34252,-19.247892 0.34252,-19.247892 L 144.565,15.884223 c 0.002,-0.0721 0.002,-0.144197 0.003,-0.216295 -8e-5,-8.5485457 -7.16137,-15.478482 -15.99532,-15.4785401 -8.83395,5.81e-5 -15.99528,6.9299944 -15.99537,15.4785401 3e-4,0.08373 0.002,0.167163 0.003,0.250891 l -20.104215,0.0058 c 0.0055,-0.158733 0.0076,-0.317466 0.0076,-0.476227 6.7e-5,-8.5485457 -7.161247,-15.4785113 -15.995192,-15.4785694 -0.04907,-2.035e-4 -0.09815,-2.035e-4 -0.14722,0 z M 113.45762,20.731329 c 2.23041,6.23346 8.29821,10.41415 15.115,10.414179 4.68166,2.9e-5 9.12836,-1.98477 12.16739,-5.430929 -0.0233,0.206411 -0.32796,2.907223 -0.87887,8.127613 -0.57124,5.413428 -1.54364,7.69636 -3.00918,11.308084 -1.46555,3.611723 -4.56729,6.797165 -7.88425,8.815688 -3.31691,2.018522 -14.58015,-0.518324 -14.58015,-0.518324 z m -22.500443,1.314546 0.07207,31.191458 c 0,0 0.07285,0.832301 -1.228912,0.832301 -1.301748,0 -6.111503,0.614523 -8.029975,0.811253 -1.918472,0.196817 -6.120062,-0.143616 -11.691164,-5.606728 -4.963639,-4.867427 -5.758902,-20.534761 -5.874128,-23.91263 3.038881,3.525933 7.538511,5.564399 12.283083,5.564631 6.192783,-1.16e-4 11.829067,-3.459357 14.468983,-8.880285 z M 113.76259,90.55832 c 0.39969,6.005299 5.34946,10.67068 11.32159,10.67106 5.6495,-6e-5 10.43852,-4.188361 11.23445,-9.825241 -0.0337,2.475243 -0.24943,18.111791 -0.53332,24.319781 -0.30677,6.70652 -3.8031,10.89204 -6.43749,13.28963 -3.60998,3.63526 -13.14598,2.91082 -15.60402,-2.46207 z m -44.595271,2.202403 c 1.201509,5.171636 5.77788,8.828887 11.048166,8.829237 5.098832,-4.6e-4 9.571308,-3.428251 10.933992,-8.380017 0.466988,14.951547 3.351345,23.474117 -1.374689,31.667837 -5.526478,8.12366 -17.582283,4.09993 -19.908886,-2.63973 -1.65424,-4.90906 -0.990708,-23.035041 -0.698583,-29.477327 z m 87.652181,2.172401 c 1.95014,4.615845 6.48176,7.616766 11.50187,7.616826 4.90348,-4.1e-4 9.35248,-2.865541 11.37266,-7.323868 -0.1003,1.977677 -0.20816,4.116267 -0.23578,4.977208 -0.0686,2.12365 0.40995,6.58407 -2.14684,11.63258 -2.55676,5.04849 -3.38342,4.76928 -6.46304,5.49102 -3.07959,0.72177 -5.60755,0.26805 -9.19427,-2.27453 -3.58669,-2.54248 -4.66174,-9.74564 -4.66174,-9.74564 z m -108.44749,0.04506 c -0.07239,1.055835 -0.13879,2.043145 -0.252403,3.578555 -1.858388,29.590851 -23.865091,24.766971 -23.062331,-2.90551 2.134616,4.403361 6.604639,7.200721 11.506374,7.200691 5.169483,-2.1e-4 9.829898,-3.107741 11.808345,-7.873736 z"
       sodipodi:nodetypes="ccccccccccccccccccccccscccccccccccccccccccccccsccscccccscscccccccccccsccccscccccssccsccccs" />
  </g>
</svg>
